<?xml version="1.0" standalone="no"?>
<!DOCTYPE svg PUBLIC "-//W3C//DTD SVG 20010904//EN"
 "http://www.w3.org/TR/2001/REC-SVG-20010904/DTD/svg10.dtd">
<svg version="1.0" xmlns="http://www.w3.org/2000/svg"
 width="1920.000000pt" height="1920.000000pt" viewBox="0 0 1920.000000 1920.000000"
 preserveAspectRatio="xMidYMid meet">
<metadata>
Created by potrace 1.14, written by Peter Selinger 2001-2017
</metadata>
<g transform="translate(0.000000,1920.000000) scale(0.100000,-0.100000)"
fill="#000000" stroke="none">
<path d="M223 19016 c-23 -6 -48 -17 -55 -23 -6 -7 -17 -13 -23 -13 -17 0 -88
-71 -118 -117 l-27 -43 3 -3312 2 -3313 37 -54 c21 -29 38 -49 38 -45 0 5 6
-1 14 -12 19 -26 114 -74 154 -77 18 -1 32 -4 32 -7 0 -3 33 -4 72 -2 40 1 78
2 83 2 6 0 89 -1 185 -3 96 -1 181 2 187 6 7 5 13 6 13 1 0 -11 411 -11 428 0
6 4 12 4 12 -1 0 -4 50 -8 110 -8 61 0 110 4 110 8 0 5 6 5 13 0 16 -10 167
-10 167 0 0 4 8 4 18 -1 9 -4 91 -7 182 -5 91 2 172 3 180 3 8 0 80 0 160 0
80 0 152 0 160 0 8 0 80 0 160 0 80 0 152 0 160 0 8 0 80 0 160 0 80 0 150 0
155 0 6 0 89 -1 185 -3 96 -1 181 2 188 6 6 5 12 6 12 1 0 -11 411 -11 428 0
6 4 12 4 12 -1 0 -4 50 -8 110 -8 61 0 110 4 110 8 0 5 6 5 13 0 16 -10 167
-10 167 0 0 4 8 4 18 -1 9 -4 91 -7 182 -5 91 2 172 3 180 3 8 0 80 0 160 0
173 0 118 0 400 -3 129 -1 241 1 248 6 6 5 12 6 12 1 0 -5 50 -9 110 -9 61 0
110 4 110 9 0 5 6 4 13 -1 10 -7 171 -10 187 -3 3 1 10 1 15 0 27 -6 52 -5 68
2 9 5 17 5 17 1 0 -5 25 -8 56 -7 33 1 57 -4 60 -10 2 -6 5 -2621 7 -5811 2
-5585 3 -5801 20 -5839 39 -82 82 -128 162 -173 l50 -28 3270 0 c1799 0 3283
4 3299 8 16 4 42 17 58 28 15 11 28 18 28 15 0 -3 18 11 39 32 43 41 71 86 92
147 11 34 13 946 14 5835 l0 5795 113 0 c61 0 112 4 112 8 0 5 6 5 13 0 16
-10 177 -10 184 0 2 4 12 3 21 -1 9 -5 26 -7 37 -6 30 4 46 4 223 2 89 -2 162
1 162 6 0 5 6 4 13 -1 14 -11 377 -10 395 1 6 4 12 4 12 -1 0 -4 50 -8 110 -8
61 0 110 4 110 8 0 5 6 5 13 0 16 -10 177 -10 184 0 2 4 12 3 21 -1 9 -5 26
-7 37 -6 30 4 46 4 223 2 89 -2 162 1 162 6 0 5 6 4 13 -1 6 -5 57 -8 112 -6
55 2 107 3 115 3 8 0 80 0 160 0 80 0 150 0 155 0 6 0 89 -1 185 -3 96 -1 181
2 188 6 6 5 12 6 12 1 0 -11 411 -11 428 0 6 4 12 4 12 -1 0 -4 50 -8 110 -8
61 0 110 4 110 8 0 5 6 5 13 0 16 -10 167 -10 167 0 0 4 8 4 18 -1 9 -4 91 -7
182 -5 91 2 172 3 180 3 8 0 80 0 160 0 80 0 152 0 160 0 8 0 80 0 160 0 80 0
152 0 160 0 8 0 80 0 160 0 175 0 127 0 415 -1 132 -1 254 1 271 4 49 7 136
40 141 54 3 7 9 13 14 13 14 0 66 60 86 100 10 19 20 37 23 40 7 7 13 31 13
58 1 12 5 22 9 22 5 0 4 9 -2 20 -8 15 -8 20 1 20 9 0 9 3 0 14 -8 10 -9 16
-1 21 7 4 7 12 0 26 -8 14 -7 19 1 19 9 0 9 3 0 14 -8 10 -9 16 -1 21 7 4 7
12 0 26 -8 14 -7 19 1 19 9 0 9 3 0 14 -8 10 -9 16 -1 21 7 4 7 12 0 26 -8 14
-7 19 1 19 9 0 9 3 0 14 -8 10 -9 16 -1 21 7 4 7 12 0 26 -8 14 -7 19 1 19 9
0 9 3 0 14 -8 10 -9 16 -1 21 7 4 7 12 0 26 -8 14 -7 19 1 19 8 0 9 4 0 13 -6
8 -8 17 -5 20 9 8 9 201 0 215 -4 7 -2 12 3 12 6 0 11 5 11 11 0 5 -4 8 -8 5
-4 -2 -8 4 -8 14 0 10 3 17 6 15 8 -5 4 170 -4 183 -4 7 -2 12 3 12 6 0 11 5
11 11 0 5 -4 8 -8 5 -4 -2 -8 4 -8 14 0 10 3 17 6 15 8 -5 4 170 -4 183 -4 7
-2 12 3 12 6 0 11 5 11 11 0 5 -4 8 -8 5 -4 -2 -8 4 -8 14 0 10 3 17 6 15 8
-5 4 170 -4 183 -4 7 -2 12 3 12 6 0 11 5 11 11 0 5 -4 8 -8 5 -4 -2 -8 4 -8
14 0 10 3 17 6 15 8 -5 4 170 -4 183 -4 7 -2 12 3 12 6 0 11 5 11 11 0 5 -4 8
-8 5 -4 -2 -8 4 -8 14 0 10 3 17 6 15 8 -5 4 170 -4 183 -4 7 -2 12 3 12 6 0
11 5 11 11 0 5 -4 8 -8 5 -4 -2 -8 4 -8 14 0 10 3 17 6 15 8 -5 4 170 -4 183
-4 7 -2 12 3 12 6 0 11 5 11 11 0 5 -4 8 -8 5 -4 -2 -8 4 -8 14 0 10 3 17 6
15 8 -5 4 170 -4 183 -4 7 -2 12 3 12 6 0 11 5 11 11 0 5 -4 8 -8 5 -4 -2 -8
4 -8 14 0 10 3 17 6 15 8 -5 4 170 -4 183 -4 7 -2 12 3 12 6 0 11 5 11 11 0 5
-4 8 -8 5 -4 -2 -8 4 -8 14 0 10 3 17 6 15 8 -5 4 170 -4 183 -4 7 -2 12 3 12
6 0 11 5 11 11 0 5 -4 8 -8 5 -4 -2 -8 4 -8 14 0 10 3 17 6 15 7 -4 4 140 -4
160 -3 8 0 15 6 15 7 0 7 4 -1 14 -8 10 -9 16 -1 21 7 4 7 12 0 26 -8 14 -7
19 1 19 9 0 9 3 0 14 -8 10 -9 16 -1 21 7 4 7 12 0 26 -8 14 -7 19 1 19 9 0 9
3 0 14 -8 10 -9 16 -1 21 7 4 7 12 0 26 -8 14 -7 19 1 19 9 0 9 3 0 14 -8 10
-9 16 -1 21 7 4 7 12 0 26 -8 14 -7 19 1 19 9 0 9 3 0 14 -8 10 -9 16 -1 21 7
4 7 12 0 26 -8 14 -7 19 1 19 9 0 9 3 0 14 -8 10 -9 16 -1 21 7 4 7 12 0 26
-8 14 -7 19 1 19 9 0 9 3 0 14 -8 10 -9 16 -1 21 7 4 7 12 0 26 -8 14 -7 19 1
19 9 0 9 3 0 14 -8 10 -9 16 -1 21 7 4 7 12 0 26 -8 14 -7 19 1 19 9 0 9 3 0
14 -8 10 -9 16 -1 21 7 4 7 12 0 26 -8 14 -7 19 1 19 9 0 9 3 0 14 -8 10 -9
16 -1 21 7 4 7 12 0 26 -8 14 -7 19 1 19 9 0 9 3 0 14 -8 10 -9 16 -1 21 7 4
7 12 0 26 -8 14 -7 19 1 19 9 0 9 3 0 14 -8 10 -9 16 -1 21 7 4 7 12 0 26 -8
14 -7 19 1 19 9 0 9 3 0 14 -8 10 -9 16 -1 21 7 4 7 12 0 26 -8 14 -7 19 1 19
9 0 9 3 0 14 -8 10 -9 16 -1 21 7 4 7 12 0 26 -8 14 -7 19 1 19 9 0 9 3 0 14
-8 10 -9 16 -1 21 7 4 7 12 0 26 -8 14 -7 19 1 19 9 0 9 3 0 14 -7 8 -8 17 -3
20 10 6 9 36 -2 54 -4 6 -2 12 3 12 6 0 11 5 11 11 0 5 -4 8 -8 5 -4 -2 -8 4
-8 14 0 10 3 17 6 15 8 -5 4 170 -4 183 -4 7 -2 12 3 12 6 0 11 5 11 11 0 5
-4 8 -8 5 -4 -2 -8 4 -8 14 0 10 3 17 6 15 8 -5 4 170 -4 183 -4 7 -2 12 3 12
6 0 11 5 11 11 0 5 -4 8 -8 5 -4 -2 -8 4 -8 14 0 10 3 17 6 15 8 -5 4 170 -4
183 -4 7 -2 12 3 12 6 0 11 5 11 11 0 5 -4 8 -8 5 -4 -2 -8 4 -8 14 0 10 3 17
6 15 8 -5 4 170 -4 183 -4 7 -2 12 3 12 6 0 11 5 11 11 0 5 -4 8 -8 5 -4 -2
-8 4 -8 14 0 10 3 17 6 15 8 -5 4 170 -4 183 -4 7 -2 12 3 12 6 0 11 5 11 11
0 5 -4 8 -8 5 -4 -2 -8 4 -8 14 0 10 4 16 8 14 12 -8 9 11 -4 24 -9 9 -9 12 0
12 7 0 12 5 12 11 0 5 -4 8 -8 5 -4 -2 -8 4 -8 14 0 10 3 17 6 15 8 -5 4 170
-4 183 -4 7 -2 12 3 12 6 0 11 5 11 11 0 5 -4 8 -8 5 -4 -2 -8 4 -8 14 0 10 3
17 6 15 8 -5 4 170 -4 183 -4 7 -2 12 3 12 6 0 11 5 11 11 0 5 -4 8 -8 5 -4
-2 -8 4 -8 14 0 10 3 17 6 15 8 -5 4 170 -4 183 -4 7 -2 12 4 12 6 0 9 3 7 8
-3 4 -6 27 -8 52 -2 25 -6 52 -9 60 -28 64 -58 114 -72 124 -10 6 -18 15 -18
21 -1 14 -101 75 -122 75 -10 0 -18 4 -18 10 0 14 -18653 11 -18707 -4z"/>
</g>
</svg>
